<svg width="32" height="32" viewBox="0 0 32 32" fill="none" xmlns="http://www.w3.org/2000/svg">
  <!-- Alpaca head outline -->
  <path d="M16 4C12 4 8 6 8 12C8 14 8.5 15.5 9.5 16.5C10 17 10.5 17.5 11 18C11.5 18.5 12 19 12.5 19.5C13 20 13.5 20.5 14 21C14.5 21.5 15 22 15.5 22.5C15.7 22.7 15.9 22.9 16 23C16.1 22.9 16.3 22.7 16.5 22.5C17 22 17.5 21.5 18 21C18.5 20.5 19 20 19.5 19.5C20 19 20.5 18.5 21 18C21.5 17.5 22 17 22.5 16.5C23.5 15.5 24 14 24 12C24 6 20 4 16 4Z" stroke="#2563EB" stroke-width="2" fill="#F8FAFC"/>
  
  <!-- Eyes -->
  <circle cx="13" cy="12" r="1.5" fill="#2563EB"/>
  <circle cx="19" cy="12" r="1.5" fill="#2563EB"/>
  
  <!-- Nose -->
  <path d="M16 15L15 16L16 17L17 16L16 15Z" fill="#2563EB"/>
  
  <!-- Ears -->
  <ellipse cx="12" cy="8" rx="2" ry="4" fill="#F8FAFC" stroke="#2563EB" stroke-width="1.5"/>
  <ellipse cx="20" cy="8" rx="2" ry="4" fill="#F8FAFC" stroke="#2563EB" stroke-width="1.5"/>
  
  <!-- Body suggestion -->
  <ellipse cx="16" cy="27" rx="6" ry="3" fill="#E2E8F0" stroke="#64748B" stroke-width="1"/>
</svg>