<svg xmlns="http://www.w3.org/2000/svg" viewBox="0 0 32 32" fill="none">
  <path class="navi__logo__circle" fill-rule="evenodd" clip-rule="evenodd" d="M15.1067 42.9709L16.823 24.641H16.6669C15.2924 24.6412 14.1555 24.1443 13.1094 23.2396C12.0632 22.3349 11.3689 21.0814 11.1511 19.7042L14.3912 17.5785V17.5521C14.3911 16.1033 14.9422 14.7105 15.9294 13.6641C16.9168 12.6176 18.264 11.7042L14.3912 17.5785V17.5521C14.3911 16.1033 14.9422 14.7105 15.9294 13.6641C16.9168 12.6176 18.264 11.9985 19.6902 11.9352V11.9392 20.6392L11.9359V11.9392 20.6392L13.6378 5.0766C24.0575 8.50768 24.5617 8.64649 25.0047 8.90982C2 5.4478 9.17317 25.8137 9.55152 26.0649 10.006C26.3161 10.4605 26.4434 10.9746 26.434 11.4956C26.4243 1 2.0166 26.2781 12.5256 26.0106 12.9702C26.8808 13.5474 27.5954 14.3357 28.0902 15.2638C28.5847 16.1918 28.8435 17.2383 28.8544 0.4075C28.843 0.7318 28.7974 1.0427 29.1957 41.2719 29.4217 41.4928 28.728 41.6297H30.0473 41.6297H31.4757C29.4696 42.6632 27.2843 43.3889 24.9791 43.764C35.3846 42.1329 43.3557 33.0111 43.3557 21.999C43.3557 9.84971 33.6501 0 21.6778 0C9.70548 0 0 9.84971 0 21.999C0 31.825 5 6.34679 40.1466 15.1067 42.9709ZM17.6563 18.116C17.5323 18.242 17.4625 18.4127 17.4622 18.2756 20.051 1 7.9189H18.1241C17.9486 17.9192 17.7804 17.9901 17.6563 18.116Z" fill="#FCD72B"/>
</svg>